<?xml version="1.0" encoding="utf-8"?>
<!-- Generator: Adobe Illustrator 15.0.0, SVG Export Plug-In . SVG Version: 6.00 Build 0)  -->
<!DOCTYPE svg PUBLIC "-//W3C//DTD SVG 1.1//EN" "http://www.w3.org/Graphics/SVG/1.1/DTD/svg11.dtd">
<svg version="1.1" id="_x32_" xmlns="http://www.w3.org/2000/svg" xmlns:xlink="http://www.w3.org/1999/xlink" x="0px" y="0px"
	 width="198.075px" height="187.678px" viewBox="75.624 281.201 198.075 187.678"
	 enable-background="new 75.624 281.201 198.075 187.678" xml:space="preserve">
<g>
	<path fill="#DB6565" d="M243.257,281.201c0,0-8.82,8.107-10.756,9.884l-29.586,27.181c-2.2,2.015,1.771,11.675,5.536,16.286
		c5.081,6.217,16.63,10.783,16.63,10.783c3.535,4.255,1.493,8.662-0.905,17.568c-2.939,10.935-15.52,24.803-27.128,36.114
		c-12.249,10.604-27.135,21.968-38.301,23.983c-9.078,1.646-13.656,3.311-17.607-0.555c0,0-3.595-11.879-9.375-17.449
		c-4.288-4.129-13.598-8.887-15.798-6.865l-29.586,27.181c-1.936,1.777-10.756,9.878-10.756,9.878
		c-0.106,2.431,7.373,18.037,13.425,24.604c11.958,12.977,42.053,10.828,65.237,1.234c18.058-7.472,42.959-22.007,62.819-40.249
		c21.109-19.391,36.438-41.809,45.396-59.152c11.503-22.279,16.147-52.037,4.188-65.02
		C260.647,290.048,245.696,281.307,243.257,281.201z"/>
</g>
</svg>
