<?xml version="1.0" encoding="utf-8"?>
<!-- Generator: Adobe Illustrator 15.0.0, SVG Export Plug-In . SVG Version: 6.00 Build 0)  -->
<!DOCTYPE svg PUBLIC "-//W3C//DTD SVG 1.1//EN" "http://www.w3.org/Graphics/SVG/1.1/DTD/svg11.dtd">
<svg version="1.1" id="レイヤー_1" xmlns="http://www.w3.org/2000/svg" xmlns:xlink="http://www.w3.org/1999/xlink" x="0px"
	 y="0px" width="257px" height="29px" viewBox="0 0 257 29" enable-background="new 0 0 257 29" xml:space="preserve">
<path fill="#63421C" d="M256.27,5.631v16.26l0.09,3.719c0,2.341-0.69,2.91-3.811,2.91h-1.59c-0.21-0.93-0.54-1.83-1.02-2.789
	c1.92,0.119,2.369,0.149,3,0.149c0.449,0,0.689-0.09,0.689-0.569v-12.06h-4.891l-3.809,0.12l-0.15-0.12l0.119-3.36v-5.43
	l-0.119-2.61l0.15-0.15l3.809,0.12h3.721l3.779-0.12l0.15,0.15L256.27,5.631z M253.629,3.951h-6.21v2.34h6.21V3.951z M253.629,8.361
	h-6.21v2.76h6.21V8.361z M242.709,13.221l-0.15,0.15l-3.779-0.12h-4.529V28.49h-2.73l0.121-4.801V5.631l-0.121-3.78l0.15-0.15
	l3.78,0.12h3.329l3.779-0.12l0.15,0.15l-0.12,2.58v5.46L242.709,13.221z M240.13,3.951h-5.88v2.34h5.88V3.951z M240.13,8.361h-5.88
	v2.76h5.88V8.361z M217.659,21.47v0.39l0.09,3.48c0,2.34-0.66,2.91-4.05,2.91h-1.11c-0.21-0.9-0.69-1.98-1.38-2.939
	c1.32,0.149,2.311,0.18,2.76,0.18c0.84,0,0.99-0.061,0.99-0.69v-3.33H201.91l-4.801,0.12v-2.37l4.801,0.12h13.049v-1.71H204.58
	l-3.689,0.09l-0.15-0.27l0.119-3.66v-2.489l-0.119-3.78l0.15-0.15l3.779,0.12h4.77v-1.65h-7.02l-4.8,0.12v-2.34l4.8,0.09h7.02v-0.24
	c0-1.2,0-1.8-0.211-2.73c3.42,0.21,3.84,0.36,3.84,0.75c0,0.33-0.149,0.48-0.989,0.75v1.47h7.409l4.801-0.09v2.34l-4.801-0.12
	h-7.409v1.65h4.979l3.78-0.12l0.149,0.15l-0.119,3.78v2.489l0.119,3.69l-0.119,0.239l-3.21-0.09v1.71h2.399l4.801-0.12v2.37
	l-4.801-0.12H217.659z M209.439,9.561h-5.969v1.98h5.969V9.561z M209.439,13.461h-5.969v2.1h5.969V13.461z M218.229,9.561h-6.149
	v1.98h6.149V9.561z M218.229,15.561v-2.1h-6.149v2.1H218.229z M190.449,18.08c-1.11-0.42-2.01-0.811-3.24-1.561v1.95l0.12,3.36
	l-0.149,0.15l-3.601-0.09h-1.47v1.439l0.09,2.49c0,2.07-0.75,2.609-3.66,2.609h-1.08c-0.27-0.96-0.6-1.74-1.141-2.609
	c0.99,0.09,1.98,0.18,2.641,0.18c0.48,0,0.63-0.09,0.63-0.45v-3.659h-1.771l-3.539,0.09l-0.18-0.15l0.121-3.36V16.73
	c-0.541,0.359-1.141,0.72-1.771,1.109c-0.36-0.51-0.75-0.93-1.351-1.41c-0.3,4.62-1.68,8.07-4.83,11.7
	c-0.689-0.72-1.35-1.2-2.279-1.771c2.97-2.579,4.199-6.18,4.5-10.379c-0.84,0.42-1.68,0.84-2.52,1.229
	c-0.061,0.69-0.271,0.899-0.511,0.899c-0.54,0-0.72-0.51-1.71-3.479c0.779-0.09,1.05-0.15,1.561-0.27
	c1.02-0.24,2.069-0.57,3.239-1.109v-5.04l-0.12-4.47l0.15-0.15l4.439,0.12h5.459v-0.99c0-0.66,0-0.87-0.27-2.19
	c3.45,0.18,3.93,0.27,3.93,0.84c0,0.3-0.27,0.45-0.959,0.63v1.71h5.909l4.8-0.12v2.49l-4.8-0.12H171.16V14.3
	c0,0.57,0,1.11-0.03,1.65c0.72-0.36,1.41-0.75,2.101-1.17c0.449-0.3,0.869-0.6,1.289-0.93c-0.72-0.629-1.529-1.229-2.459-1.829
	l1.649-1.38c0.931,0.57,1.679,1.14,2.429,1.77c0.6-0.6,1.11-1.29,1.59-2.01h-1.41l-4.559,0.09v-2.22l4.559,0.09h2.461
	c0.359-0.84,0.479-1.68,0.51-2.25c3,0.75,3.449,0.84,3.449,1.29c0,0.27-0.359,0.45-1.139,0.51l-0.181,0.45h5.069l4.591-0.09v2.22
	l-4.591-0.09h-2.909c0.569,0.84,1.2,1.65,1.95,2.34c0.689-0.42,1.14-0.78,1.41-0.99c0.51-0.45,0.689-0.66,0.99-1.14
	c2.1,1.53,2.369,1.8,2.369,2.13c0,0.18-0.119,0.27-0.42,0.27c-0.15,0-0.33,0-0.57-0.06c-0.539,0.33-1.17,0.75-1.92,1.139
	c1.291,0.75,2.85,1.32,4.86,1.891C191.409,16.7,190.988,17.21,190.449,18.08z M181.18,10.401h-0.781
	c-0.719,1.32-1.619,2.52-2.699,3.569h6.21C182.859,12.891,181.959,11.691,181.18,10.401z M184.869,15.71h-8.4v1.38h8.4V15.71z
	 M184.869,18.71h-8.4v1.41h8.4V18.71z M166.029,11.241c-0.6-2.07-1.17-3.54-1.889-5.04l2.34-1.08c0.84,1.5,1.439,3.03,2.039,4.95
	L166.029,11.241z M154.809,12.081c-4.68,0.51-8.609,0.84-14.009,1.14c-0.18,0.719-0.3,0.839-0.69,0.839
	c-0.449,0-0.779-0.389-1.68-3.539c1.711,0.09,2.25,0.09,2.91,0.09c0.6,0,1.169-0.03,1.739-0.03c1.05-2.82,1.771-5.22,2.25-7.26
	c0.21-0.87,0.33-1.77,0.39-2.64c3.48,0.96,3.9,1.14,3.9,1.62c0,0.42-0.24,0.54-1.11,0.66c-0.87,2.91-1.68,5.28-2.521,7.53
	c2.4-0.15,4.83-0.3,7.261-0.51c-0.81-0.99-1.71-1.95-2.79-3.03l2.13-1.35c2.46,2.37,4.11,4.35,6.271,7.56l-2.371,1.529
	C155.919,13.73,155.379,12.861,154.809,12.081z M132.971,3.501l1.649-1.89c1.56,0.69,2.909,1.5,4.5,2.76l-1.771,2.1
	C135.1,5.211,134.5,4.281,132.971,3.501z M135.311,13.641c-1.351-1.2-2.58-2.07-4.141-2.91l1.59-1.98c1.53,0.75,2.85,1.56,4.26,2.67
	L135.311,13.641z M104.02,26.811c-0.45-0.931-1.05-1.74-1.86-2.49c8.189-3.271,12.719-7.62,15.809-15.779l-7.92,0.03
	c-1.679,2.52-3.809,5.01-6.869,7.529c-0.6-0.75-1.29-1.29-2.37-1.919c4.14-3.449,6.87-6.569,8.489-10.589
	c-0.719-0.51-0.809-0.72-0.809-0.93c0-0.27,0.15-0.39,0.54-0.39c0.479,0,1.229,0.24,3.749,1.35c-0.42,0.87-0.75,1.5-1.17,2.25
	l7.02-0.03l0.75-0.54h0.42c2.19,2.04,2.4,2.37,2.4,2.79c0,0.27-0.21,0.54-1.02,0.99C117.519,18.08,113.109,23.061,104.02,26.811z
	 M74.02,27.38c-0.42-0.84-0.99-1.5-1.86-2.13c8.879-2.67,12.389-6.96,13.199-14.459c-0.63-0.45-0.81-0.66-0.81-0.87
	c0-0.27,0.18-0.36,0.48-0.36c0.48,0,1.32,0.21,3.42,0.96l-0.42,1.56C86.409,20.061,82.749,24.47,74.02,27.38z M75.52,10.311
	l2.339-1.17c1.32,1.98,2.25,3.93,3.06,6.149l-2.43,1.2C77.739,14.21,76.749,12.051,75.52,10.311z M69.37,11.511l2.28-1.32
	c1.5,1.8,2.82,4.109,3.69,6.359l-2.37,1.29C72.04,15.53,70.75,13.221,69.37,11.511z M40.12,25.79c-0.33,0-0.75-0.3-2.58-2.34v-0.42
	l0.36-0.511l0.12-16.949c-0.84-0.51-0.99-0.72-0.99-0.93s0.15-0.36,0.72-0.36c0.51,0,1.17,0.09,3.63,0.63l-0.24,1.98L41.02,21.74
	c5.879-2.311,10.859-6.301,14.399-11.369c0.6,1.05,1.29,1.68,2.1,2.4c-4.26,5.549-9.72,9.54-16.379,12.209
	C40.72,25.55,40.42,25.79,40.12,25.79z M16.659,18.439c-0.72-0.75-1.38-1.379-2.22-1.83c1.68-1.619,2.97-3.088,4.23-4.738l1.23-1.38
	l-0.06-0.12l-2.16,0.75l-7.23,1.95l-0.03,2.25c-0.03,1.35-0.03,2.13-0.03,3.57c0,3.18,0.66,3.75,4.17,3.75
	c3.18,0,5.64-0.15,8.61-0.511l0.36,3.03c-3.36,0.27-6.03,0.39-9.51,0.39c-5.069,0-6.689-2.04-6.689-6.69
	c0-1.439,0.03-2.159,0.03-3.629V13.82l-1.5,0.42l-4.98,1.41l-0.81-2.939l5.31-1.23l2.01-0.51l0.06-6.03
	c-0.84-0.48-0.96-0.69-0.96-0.96c0-0.24,0.18-0.36,0.66-0.36c0.57,0,1.26,0.12,3.629,0.66l-0.24,1.74l-0.06,4.23l10.02-2.64
	l0.84-0.75h0.42c2.34,1.83,2.55,2.01,2.55,2.49c0,0.36-0.21,0.54-1.14,1.11C21.009,13.701,18.999,16.189,16.659,18.439z
	 M135.52,15.59c0.75,0.63,1.5,1.141,2.34,1.59c-1.17,4.021-2.01,6.33-3.149,9.391c0.12,0.24,0.21,0.449,0.21,0.66
	c0,0.27-0.21,0.39-0.54,0.39c-0.39,0-1.11-0.511-2.79-1.979c0.51-0.511,0.75-0.871,1.051-1.471
	C133.48,22.46,134.439,19.82,135.52,15.59z M141.25,16.1l0.15-0.149l3.869,0.12h6.569l3.87-0.12l0.15,0.149l-0.121,3.57v3.63
	l0.121,4.8h-2.82v-1.68h-9v1.8h-2.789l0.12-4.71v-3.84L141.25,16.1z M144.039,24.109h9V18.38h-9V24.109z M175.27,22.46
	c2.279,1.44,2.549,1.649,2.489,1.979c0,0.271-0.149,0.36-1.021,0.271c-1.768,1.38-3.209,2.28-5.549,3.271
	c-0.359-0.75-0.81-1.261-1.5-1.891c1.98-0.689,3.57-1.59,4.5-2.4C174.79,23.15,175.061,22.85,175.27,22.46z M191.169,25.939
	l-1.739,1.891c-1.621-1.29-3.031-2.28-5.791-3.6l1.68-1.621C187.749,23.689,189.398,24.74,191.169,25.939z M208.898,25.25
	l-2.219,1.77c-0.93-1.319-2.369-2.879-3.359-3.629l2.01-1.531C206.38,22.58,207.91,24.05,208.898,25.25z"/>
</svg>
